<svg version="1.1" id="svg" xmlns="http://www.w3.org/2000/svg" x="0" y="0" viewBox="0 0 1000 255" xml:space="preserve"><style></style><linearGradient id="SVGID_1_" gradientUnits="userSpaceOnUse" x1="0" y1="477.904" x2="1" y2="477.904" gradientTransform="matrix(1000 0 0 -236.6005 0 113178.648)"><stop offset=".05" stop-color="#00a1ed" stop-opacity=".4"/><stop offset=".949" stop-color="#66cfff" stop-opacity=".4"/></linearGradient><path d="M0 210.3V15.9c48-2.5 96-4.9 166.7-.9s164 14.6 245.1 21.2c81.2 6.5 150.2 9.1 220.1.8C701.8 28.7 772.5 9.5 834 4.2c61.5-5.4 113.7 3.2 166 11.7v194.5H0z" fill="url(#SVGID_1_)"/><linearGradient id="SVGID_00000137827678051385714580000012959392535292792231_" gradientUnits="userSpaceOnUse" x1="0" y1="478.291" x2="1" y2="478.291" gradientTransform="matrix(999.9 0 0 -168.8187 0 80880.594)"><stop offset=".05" stop-color="#00a1ed" stop-opacity=".53"/><stop offset=".95" stop-color="#66cfff" stop-opacity=".53"/></linearGradient><path d="M0 210.3V80.7c58.4 13.9 116.9 27.8 189.6 19.9S349.4 63 424.3 62.1c75-.8 137.8 27.2 194.4 30.2 56.6 3.1 106.9-19 169.4-25s137.2 3.6 211.8 13.4v129.7H0z" fill="url(#SVGID_00000137827678051385714580000012959392535292792231_)"/><linearGradient id="SVGID_00000016785988470914846300000006861488662002550669_" gradientUnits="userSpaceOnUse" x1="0" y1="478.478" x2="1" y2="478.478" gradientTransform="matrix(999.9999 0 0 -152.1096 0 72966.734)"><stop offset=".05" stop-color="#00a1ed"/><stop offset=".95" stop-color="#66cfff"/></linearGradient><path d="M828.5 122.6c-68.2-5-153-6.2-222.9 4.7s-124.8 34.1-195.8 35.8c-71 1.8-158.2-17.7-229.2-24.2-71-6.6-125.8 0-180.6 6.5v93.7c52.2 8.5 104.5 17 166 11.7 61.5-5.4 132.2-24.5 202.1-32.9s139-5.7 220.1.9c81.2 6.6 174.5 17.1 245.1 21.2 70.7 4 118.7 1.6 166.7-.9v-93.6c-51.6-9-103.3-17.8-171.5-22.9z" fill="url(#SVGID_00000016785988470914846300000006861488662002550669_)"/></svg>