<svg height="134" viewBox="0 0 48 134" width="48" xmlns="http://www.w3.org/2000/svg" fill="none"><circle cx="45.6673" r="1.66667" cy="132" fill="#3758F9" transform="rotate(180 45.6673 132)"></circle><circle cx="45.6673" r="1.66667" cy="117.333" fill="#3758F9" transform="rotate(180 45.6673 117.333)"></circle><circle cx="45.6673" r="1.66667" cy="102.667" fill="#3758F9" transform="rotate(180 45.6673 102.667)"></circle><circle cx="45.6673" r="1.66667" cy="88.0001" fill="#3758F9" transform="rotate(180 45.6673 88.0001)"></circle><circle cx="45.6673" r="1.66667" cy="73.3333" fill="#3758F9" transform="rotate(180 45.6673 73.3333)"></circle><circle cx="45.6673" r="1.66667" cy="45.0001" fill="#3758F9" transform="rotate(180 45.6673 45.0001)"></circle><circle cx="45.6673" r="1.66667" cy="16.0001" fill="#3758F9" transform="rotate(180 45.6673 16.0001)"></circle><circle cx="45.6673" r="1.66667" cy="59.0001" fill="#3758F9" transform="rotate(180 45.6673 59.0001)"></circle><circle cx="45.6673" r="1.66667" cy="30.6668" fill="#3758F9" transform="rotate(180 45.6673 30.6668)"></circle><circle cx="45.6673" r="1.66667" cy="1.66683" fill="#3758F9" transform="rotate(180 45.6673 1.66683)"></circle><circle cx="31.0006" r="1.66667" cy="132" fill="#3758F9" transform="rotate(180 31.0006 132)"></circle><circle cx="31.0006" r="1.66667" cy="117.333" fill="#3758F9" transform="rotate(180 31.0006 117.333)"></circle><circle cx="31.0006" r="1.66667" cy="102.667" fill="#3758F9" transform="rotate(180 31.0006 102.667)"></circle><circle cx="31.0006" r="1.66667" cy="88.0001" fill="#3758F9" transform="rotate(180 31.0006 88.0001)"></circle><circle cx="31.0008" r="1.66667" cy="73.3333" fill="#3758F9" transform="rotate(180 31.0008 73.3333)"></circle><circle cx="31.0008" r="1.66667" cy="45.0001" fill="#3758F9" transform="rotate(180 31.0008 45.0001)"></circle><circle cx="31.0008" r="1.66667" cy="16.0001" fill="#3758F9" transform="rotate(180 31.0008 16.0001)"></circle><circle cx="31.0008" r="1.66667" cy="59.0001" fill="#3758F9" transform="rotate(180 31.0008 59.0001)"></circle><circle cx="31.0008" r="1.66667" cy="30.6668" fill="#3758F9" transform="rotate(180 31.0008 30.6668)"></circle><circle cx="31.0008" r="1.66667" cy="1.66683" fill="#3758F9" transform="rotate(180 31.0008 1.66683)"></circle><circle cx="16.3341" r="1.66667" cy="132" fill="#3758F9" transform="rotate(180 16.3341 132)"></circle><circle cx="16.3341" r="1.66667" cy="117.333" fill="#3758F9" transform="rotate(180 16.3341 117.333)"></circle><circle cx="16.3341" r="1.66667" cy="102.667" fill="#3758F9" transform="rotate(180 16.3341 102.667)"></circle><circle cx="16.3341" r="1.66667" cy="88.0001" fill="#3758F9" transform="rotate(180 16.3341 88.0001)"></circle><circle cx="16.3338" r="1.66667" cy="73.3333" fill="#3758F9" transform="rotate(180 16.3338 73.3333)"></circle><circle cx="16.3338" r="1.66667" cy="45.0001" fill="#3758F9" transform="rotate(180 16.3338 45.0001)"></circle><circle cx="16.3338" r="1.66667" cy="16.0001" fill="#3758F9" transform="rotate(180 16.3338 16.0001)"></circle><circle cx="16.3338" r="1.66667" cy="59.0001" fill="#3758F9" transform="rotate(180 16.3338 59.0001)"></circle><circle cx="16.3338" r="1.66667" cy="30.6668" fill="#3758F9" transform="rotate(180 16.3338 30.6668)"></circle><circle cx="16.3338" r="1.66667" cy="1.66683" fill="#3758F9" transform="rotate(180 16.3338 1.66683)"></circle><circle cx="1.66732" r="1.66667" cy="132" fill="#3758F9" transform="rotate(180 1.66732 132)"></circle><circle cx="1.66732" r="1.66667" cy="117.333" fill="#3758F9" transform="rotate(180 1.66732 117.333)"></circle><circle cx="1.66732" r="1.66667" cy="102.667" fill="#3758F9" transform="rotate(180 1.66732 102.667)"></circle><circle cx="1.66732" r="1.66667" cy="88.0001" fill="#3758F9" transform="rotate(180 1.66732 88.0001)"></circle><circle cx="1.66732" r="1.66667" cy="73.3333" fill="#3758F9" transform="rotate(180 1.66732 73.3333)"></circle><circle cx="1.66732" r="1.66667" cy="45.0001" fill="#3758F9" transform="rotate(180 1.66732 45.0001)"></circle><circle cx="1.66732" r="1.66667" cy="16.0001" fill="#3758F9" transform="rotate(180 1.66732 16.0001)"></circle><circle cx="1.66732" r="1.66667" cy="59.0001" fill="#3758F9" transform="rotate(180 1.66732 59.0001)"></circle><circle cx="1.66732" r="1.66667" cy="30.6668" fill="#3758F9" transform="rotate(180 1.66732 30.6668)"></circle><circle cx="1.66732" r="1.66667" cy="1.66683" fill="#3758F9" transform="rotate(180 1.66732 1.66683)"></circle></svg>