<svg height="134" viewBox="0 0 48 134" width="48" xmlns="http://www.w3.org/2000/svg" fill="none"><circle cx="45.6673" r="1.66667" cy="132" fill="#13C296" transform="rotate(180 45.6673 132)"></circle><circle cx="45.6673" r="1.66667" cy="117.333" fill="#13C296" transform="rotate(180 45.6673 117.333)"></circle><circle cx="45.6673" r="1.66667" cy="102.667" fill="#13C296" transform="rotate(180 45.6673 102.667)"></circle><circle cx="45.6673" r="1.66667" cy="88.0001" fill="#13C296" transform="rotate(180 45.6673 88.0001)"></circle><circle cx="45.6673" r="1.66667" cy="73.3335" fill="#13C296" transform="rotate(180 45.6673 73.3335)"></circle><circle cx="45.6673" r="1.66667" cy="45.0001" fill="#13C296" transform="rotate(180 45.6673 45.0001)"></circle><circle cx="45.6673" r="1.66667" cy="16.0001" fill="#13C296" transform="rotate(180 45.6673 16.0001)"></circle><circle cx="45.6673" r="1.66667" cy="59.0001" fill="#13C296" transform="rotate(180 45.6673 59.0001)"></circle><circle cx="45.6673" r="1.66667" cy="30.6668" fill="#13C296" transform="rotate(180 45.6673 30.6668)"></circle><circle cx="45.6673" r="1.66667" cy="1.66683" fill="#13C296" transform="rotate(180 45.6673 1.66683)"></circle><circle cx="31.0013" r="1.66667" cy="132" fill="#13C296" transform="rotate(180 31.0013 132)"></circle><circle cx="31.0013" r="1.66667" cy="117.333" fill="#13C296" transform="rotate(180 31.0013 117.333)"></circle><circle cx="31.0013" r="1.66667" cy="102.667" fill="#13C296" transform="rotate(180 31.0013 102.667)"></circle><circle cx="31.0013" r="1.66667" cy="88.0001" fill="#13C296" transform="rotate(180 31.0013 88.0001)"></circle><circle cx="31.0013" r="1.66667" cy="73.3335" fill="#13C296" transform="rotate(180 31.0013 73.3335)"></circle><circle cx="31.0013" r="1.66667" cy="45.0001" fill="#13C296" transform="rotate(180 31.0013 45.0001)"></circle><circle cx="31.0013" r="1.66667" cy="16.0001" fill="#13C296" transform="rotate(180 31.0013 16.0001)"></circle><circle cx="31.0013" r="1.66667" cy="59.0001" fill="#13C296" transform="rotate(180 31.0013 59.0001)"></circle><circle cx="31.0013" r="1.66667" cy="30.6668" fill="#13C296" transform="rotate(180 31.0013 30.6668)"></circle><circle cx="31.0013" r="1.66667" cy="1.66683" fill="#13C296" transform="rotate(180 31.0013 1.66683)"></circle><circle cx="16.3333" r="1.66667" cy="132" fill="#13C296" transform="rotate(180 16.3333 132)"></circle><circle cx="16.3333" r="1.66667" cy="117.333" fill="#13C296" transform="rotate(180 16.3333 117.333)"></circle><circle cx="16.3333" r="1.66667" cy="102.667" fill="#13C296" transform="rotate(180 16.3333 102.667)"></circle><circle cx="16.3333" r="1.66667" cy="88.0001" fill="#13C296" transform="rotate(180 16.3333 88.0001)"></circle><circle cx="16.3333" r="1.66667" cy="73.3335" fill="#13C296" transform="rotate(180 16.3333 73.3335)"></circle><circle cx="16.3333" r="1.66667" cy="45.0001" fill="#13C296" transform="rotate(180 16.3333 45.0001)"></circle><circle cx="16.3333" r="1.66667" cy="16.0001" fill="#13C296" transform="rotate(180 16.3333 16.0001)"></circle><circle cx="16.3333" r="1.66667" cy="59.0001" fill="#13C296" transform="rotate(180 16.3333 59.0001)"></circle><circle cx="16.3333" r="1.66667" cy="30.6668" fill="#13C296" transform="rotate(180 16.3333 30.6668)"></circle><circle cx="16.3333" r="1.66667" cy="1.66683" fill="#13C296" transform="rotate(180 16.3333 1.66683)"></circle><circle cx="1.66732" r="1.66667" cy="132" fill="#13C296" transform="rotate(180 1.66732 132)"></circle><circle cx="1.66732" r="1.66667" cy="117.333" fill="#13C296" transform="rotate(180 1.66732 117.333)"></circle><circle cx="1.66732" r="1.66667" cy="102.667" fill="#13C296" transform="rotate(180 1.66732 102.667)"></circle><circle cx="1.66732" r="1.66667" cy="88.0001" fill="#13C296" transform="rotate(180 1.66732 88.0001)"></circle><circle cx="1.66732" r="1.66667" cy="73.3335" fill="#13C296" transform="rotate(180 1.66732 73.3335)"></circle><circle cx="1.66732" r="1.66667" cy="45.0001" fill="#13C296" transform="rotate(180 1.66732 45.0001)"></circle><circle cx="1.66732" r="1.66667" cy="16.0001" fill="#13C296" transform="rotate(180 1.66732 16.0001)"></circle><circle cx="1.66732" r="1.66667" cy="59.0001" fill="#13C296" transform="rotate(180 1.66732 59.0001)"></circle><circle cx="1.66732" r="1.66667" cy="30.6668" fill="#13C296" transform="rotate(180 1.66732 30.6668)"></circle><circle cx="1.66732" r="1.66667" cy="1.66683" fill="#13C296" transform="rotate(180 1.66732 1.66683)"></circle></svg>